# xmcd
#
# Track frame offsets: 
#        150
#        13560
#        42295
#        63322
#        97295
#        127035
#        159937
#        188755
#        228982
#        232787
#        262500
#        286295
#        302940
#        316320
#
# Disc length: 4566 seconds
#
# Revision: 6
# Processed by: cddbd v1.5.2PL0 Copyright (c) Steve Scherf et al.
# Submitted via: ExactAudioCopyFreeDBPlugin 1.0
#
DISCID=b011d40e
DTITLE=Various Artist - The Philly Sound:  Kenny Gamble, Leon Huff and 
DTITLE=The Story of Brotherly Love (1966-1976) [box set]
DYEAR=1997
DGENRE=Soul
TTITLE0=The O'Jays - Love Train
TTITLE1=Harold Melvin and The Blue Notes - The Love I Lost
TTITLE2=The O'Jays - Now That We Found Love
TTITLE3=Harold Melvin and The Blue Notes - Yesterday I Had the Blues
TTITLE4=The Intruders - I'll Always Love My Mama
TTITLE5=The O'Jays - For the Love of Money
TTITLE6=Harold Melvin and The Blue Notes - Bad Luck
TTITLE7=The O'Jays - Don't Call Me Brother
TTITLE8=M.F.S.B. - Zach's Fanfare (I Hear Music)
TTITLE9=M.F.S.B. - Love is the Message
TTITLE10=Billy Paul - Am I Black Enough for You
TTITLE11=The O'Jays - Sunshine
TTITLE12=The Three Degrees - When Will I See You Again
TTITLE13=M.F.S.B. - TSOP (The Sound of Philadelphia) (ft The Three Deg
TTITLE13=rees)
EXTD=
EXTT0=
EXTT1=
EXTT2=
EXTT3=
EXTT4=
EXTT5=
EXTT6=
EXTT7=
EXTT8=
EXTT9=
EXTT10=
EXTT11=
EXTT12=
EXTT13=
PLAYORDER=
